<?xml version="1.0" encoding="UTF-8"?>
<svg id="Capa_1" data-name="Capa 1" xmlns="http://www.w3.org/2000/svg" xmlns:xlink="http://www.w3.org/1999/xlink" viewBox="0 0 330.79 210.66">
  <defs>
    <style>
      .cls-1 {
        fill: url(#Degradado_sin_nombre_3);
      }
    </style>
    <linearGradient id="Degradado_sin_nombre_3" data-name="Degradado sin nombre 3" x1="34.07" y1="77.34" x2="1241.7" y2="477.73" gradientUnits="userSpaceOnUse">
      <stop offset="0" stop-color="#344697"/>
      <stop offset=".25" stop-color="#29bbe4"/>
    </linearGradient>
  </defs>
  <path class="cls-1" d="M306.21,81.53c-7.98-2.79-16.73,1.4-19.53,9.39l-17.13,48.85c-4.12,11.74-15.24,19.63-27.68,19.63-9.44,0-18.07-4.37-23.65-11.98-5.58-7.61-7.16-17.13-4.34-26.14.01-.04.03-.08.04-.12l20.43-64.98c3.5-11.13-.6-23.08-10.19-29.72-9.6-6.64-22.22-6.27-31.41.92L20.02,162.65c-6.66,5.22-7.83,14.85-2.62,21.51,3.02,3.86,7.53,5.88,12.08,5.88,3.3,0,6.63-1.06,9.44-3.26L201.08,59.77l-13.07,41.57h-22.71c-8.46,0-15.32,6.86-15.32,15.32s6.86,15.32,15.32,15.32h16.57c.35,11.92,4.29,23.55,11.63,33.56,11.42,15.57,29.05,24.49,48.36,24.49,25.44,0,48.18-16.13,56.6-40.13l17.14-48.85c2.8-7.99-1.4-16.73-9.39-19.53Z"/>
</svg>