<?xml version="1.0" encoding="UTF-8"?>
<svg id="Capa_1" xmlns="http://www.w3.org/2000/svg" version="1.1" xmlns:xlink="http://www.w3.org/1999/xlink" viewBox="0 0 546 133.9">
  <!-- Generator: Adobe Illustrator 29.0.0, SVG Export Plug-In . SVG Version: 2.1.0 Build 186)  -->
  <defs>
    <style>
      .st0 {
        fill: url(#Degradado_sin_nombre_6);
      }

      .st1 {
        fill: url(#Degradado_sin_nombre_5);
      }

      .st2 {
        fill: url(#Degradado_sin_nombre_4);
      }

      .st3 {
        fill: url(#Degradado_sin_nombre_2);
      }

      .st4 {
        fill: url(#Degradado_sin_nombre_9);
      }

      .st5 {
        fill: url(#Degradado_sin_nombre_7);
      }

      .st6 {
        fill: url(#Degradado_sin_nombre_3);
      }

      .st7 {
        fill: url(#Degradado_sin_nombre);
      }

      .st8 {
        fill: url(#Degradado_sin_nombre_8);
      }
    </style>
    <linearGradient id="Degradado_sin_nombre" data-name="Degradado sin nombre" x1="42.1" y1="235.7" x2="217.5" y2="177.5" gradientTransform="translate(0 299.9) scale(1 -1)" gradientUnits="userSpaceOnUse">
      <stop offset="0" stop-color="#334696"/>
      <stop offset="1" stop-color="#26bae3"/>
    </linearGradient>
    <linearGradient id="Degradado_sin_nombre_2" data-name="Degradado sin nombre 2" x1="43.9" y1="241.1" x2="219.3" y2="182.9" gradientTransform="translate(0 299.9) scale(1 -1)" gradientUnits="userSpaceOnUse">
      <stop offset="0" stop-color="#334696"/>
      <stop offset="1" stop-color="#26bae3"/>
    </linearGradient>
    <linearGradient id="Degradado_sin_nombre_3" data-name="Degradado sin nombre 3" x1="251.9" y1="198.5" x2="448" y2="149.5" gradientTransform="translate(0 299.9) scale(1 -1)" gradientUnits="userSpaceOnUse">
      <stop offset="0" stop-color="#334696"/>
      <stop offset="1" stop-color="#26bae3"/>
    </linearGradient>
    <linearGradient id="Degradado_sin_nombre_4" data-name="Degradado sin nombre 4" x1="254" y1="207" x2="450.1" y2="158" gradientTransform="translate(0 299.9) scale(1 -1)" gradientUnits="userSpaceOnUse">
      <stop offset="0" stop-color="#334696"/>
      <stop offset="1" stop-color="#26bae3"/>
    </linearGradient>
    <linearGradient id="Degradado_sin_nombre_5" data-name="Degradado sin nombre 5" x1="259.2" y1="227.8" x2="455.3" y2="178.8" gradientTransform="translate(0 299.9) scale(1 -1)" gradientUnits="userSpaceOnUse">
      <stop offset="0" stop-color="#334696"/>
      <stop offset="1" stop-color="#26bae3"/>
    </linearGradient>
    <linearGradient id="Degradado_sin_nombre_6" data-name="Degradado sin nombre 6" x1="261.2" y1="236" x2="457.4" y2="186.9" gradientTransform="translate(0 299.9) scale(1 -1)" gradientUnits="userSpaceOnUse">
      <stop offset="0" stop-color="#334696"/>
      <stop offset="1" stop-color="#26bae3"/>
    </linearGradient>
    <linearGradient id="Degradado_sin_nombre_7" data-name="Degradado sin nombre 7" x1="262.2" y1="239.7" x2="458.3" y2="190.7" gradientTransform="translate(0 299.9) scale(1 -1)" gradientUnits="userSpaceOnUse">
      <stop offset="0" stop-color="#334696"/>
      <stop offset="1" stop-color="#26bae3"/>
    </linearGradient>
    <linearGradient id="Degradado_sin_nombre_8" data-name="Degradado sin nombre 8" x1="265.3" y1="252.3" x2="461.5" y2="203.3" gradientTransform="translate(0 299.9) scale(1 -1)" gradientUnits="userSpaceOnUse">
      <stop offset="0" stop-color="#334696"/>
      <stop offset="1" stop-color="#26bae3"/>
    </linearGradient>
    <linearGradient id="Degradado_sin_nombre_9" data-name="Degradado sin nombre 9" x1="268.4" y1="264.4" x2="464.5" y2="215.4" gradientTransform="translate(0 299.9) scale(1 -1)" gradientUnits="userSpaceOnUse">
      <stop offset="0" stop-color="#334696"/>
      <stop offset="1" stop-color="#26bae3"/>
    </linearGradient>
  </defs>
  <g>
    <path class="st7" d="M25.3,128.3c-2.8,0-5.5-1.2-7.4-3.6-3.2-4.1-2.5-9.9,1.6-13.1L124.8,29.1c5.6-4.4,13.3-4.6,19.1-.6,5.9,4.1,8.3,11.3,6.2,18.1l-12.5,39.7c-1.7,5.5-.8,11.3,2.6,15.9s8.7,7.3,14.4,7.3,14.4-4.8,16.9-12l10.4-29.8c1.7-4.9,7-7.4,11.9-5.7,4.9,1.7,7.4,7,5.7,11.9l-10.4,29.8c-5.1,14.6-19,24.4-34.5,24.4s-22.5-5.4-29.5-14.9c-7-9.5-8.9-21.4-5.4-32.6l10-31.9L31,126.3c-1.7,1.3-3.7,2-5.8,2h0Z"/>
    <path class="st3" d="M128.8,92.9h-20.7c-5.2,0-9.3-4.2-9.3-9.3s4.2-9.3,9.3-9.3h20.7c5.2,0,9.3,4.2,9.3,9.3s-4.2,9.3-9.3,9.3Z"/>
  </g>
  <g>
    <path class="st6" d="M227.1,107.7c-1.1,0-1.9.2-2.3.5-.4.3-.7.8-.9,1.3l-3.5,10.2c-.2.7-.5,1.3-.7,1.8-.3.5-.6,1-1.1,1.3-.5.4-1.1.7-1.9.8s-1.8.3-3,.3c-2,0-3.4-.3-4.2-.9s-1.2-1.4-1.2-2.5,0-.7,0-1,.2-.7.3-1.2.4-1.1.6-1.8.6-1.7,1.1-2.8c1.1-2.9,2.4-6.3,3.8-10.1s2.8-7.7,4.2-11.4,2.6-7.1,3.8-10.1,1.9-5.2,2.4-6.5c.8-2.1,1.4-3.9,2.1-5.3.6-1.4,1.3-2.5,2.1-3.2s1.7-1.3,2.8-1.6c1.1-.3,2.4-.4,4.1-.4s2.8.2,3.9.5c1,.3,1.9.9,2.6,1.7s1.4,1.9,1.9,3.2,1.1,2.9,1.8,4.7c2.6,7.6,5.1,14.5,7.5,20.7,2.4,6.2,4.4,11.3,6,15.6,1,2.7,1.7,4.7,2.1,6s.6,2.4.6,3.1,0,.8-.2,1.2c-.1.4-.4.8-.8,1.1s-1,.6-1.8.8-1.8.3-3.2.3-2.3,0-3.1-.2c-.8-.1-1.4-.3-1.9-.6s-.9-.6-1.2-1c-.3-.4-.6-.9-.8-1.4s-.5-1.3-.9-2.2-.8-1.9-1.1-3-.8-2.1-1.2-3.1-.7-2-.9-2.8c-.3-.9-.6-1.4-1.1-1.7-.4-.2-1.3-.3-2.6-.3h-14,0ZM239.9,99.5c.8,0,1.2-.4,1.2-1.1s-.2-1.4-.6-2.6c-.4-1.2-1.1-3-2-5.4l-2.6-7.1c-.4-1-.8-1.6-1.4-1.6s-.6.1-.9.4-.4.7-.5,1.1c-.4,1-.7,1.9-1,2.8s-.8,2.2-1.3,3.9c-.6,1.8-1,3.2-1.4,4.2-.4,1-.6,1.8-.8,2.4-.2.6-.3,1-.4,1.2,0,.2,0,.5,0,.7,0,.6.4.9,1.3.9h10.4Z"/>
    <path class="st2" d="M307.6,119.4c0,1.4-.4,2.6-1.2,3.4s-2.1,1.2-4,1.2-3.2-.4-4-1.1c-.8-.8-1.3-1.8-1.6-3.1-.2-1-.4-1.8-.5-2.5s-.3-1-.7-1-.7.5-1.1,1.4c-.4.9-1,1.9-2,3.1-.9,1.1-2.2,2.2-4,3.1-1.7.9-4.2,1.4-7.3,1.4-10,0-15.1-6.3-15.1-19.1v-8.6c0-.8,0-1.6,0-2.2,0-.6,0-1.4,0-2.3v-9.6c0-1.4.4-2.5,1.2-3.2s2.5-1.1,4.9-1.1,3.8.3,4.8.8c1,.5,1.5,1.7,1.5,3.3s0,1.5,0,3.2c0,1.7,0,3.6,0,5.8s0,4.2,0,6.3c0,2.1,0,3.7,0,4.8,0,3.8.7,6.7,2,8.6,1.4,1.9,3.3,2.9,5.9,2.9,6.1,0,9.2-4.8,9.2-14.3s0-4.9,0-6.8c0-1.9,0-3.5,0-4.8s0-2.4,0-3.3c0-.9,0-1.7,0-2.3,0-1.3.5-2.3,1.3-2.9.9-.6,2.5-.9,4.8-.9s3.8.3,4.9.8,1.6,1.6,1.6,3.2v4.3c0,2,0,4.2,0,6.8s0,5.1,0,7.9,0,5.3,0,7.7,0,4.5,0,6.2v3.3h0Z"/>
    <path class="st1" d="M360,119.8c0,1.7-.4,2.8-1.2,3.5s-2.1,1-4.1,1-3.3-.3-4-.9-1.2-1.5-1.4-2.9c-.3-1.5-.5-2.4-.6-2.8-.1-.4-.4-.6-.7-.6s-.8.4-1.3,1.2c-.5.8-1.3,1.7-2.3,2.7s-2.4,1.9-4.2,2.7c-1.8.8-4.1,1.2-7,1.2s-5.9-.6-8.3-1.7c-2.4-1.1-4.5-2.7-6.1-4.8s-2.9-4.7-3.8-7.6-1.3-6.3-1.3-10,.5-6.7,1.5-9.5,2.3-5.2,4-7.2c1.7-2,3.7-3.5,6-4.5s4.8-1.6,7.4-1.6,5.4.3,7.1,1c1.8.6,3.1,1.3,4.1,2.1,1,.8,1.7,1.4,2.1,2.1.4.6.9.9,1.3.9s.8-.3.8-1,0-1,0-1.7c0-.7,0-1.8-.1-3.1,0-1.3-.1-3.1-.1-5.2s0-4.8,0-8.1.5-2.4,1.4-3c.9-.6,2.5-1,4.8-1s4,.3,4.9.9c1,.6,1.5,1.6,1.5,3.1v4.7c0,2.6,0,5.8,0,9.6,0,3.8,0,7.8,0,12.1s0,8.4,0,12.3,0,7.3,0,10.2v5.8h0ZM337,115.3c1.3,0,2.6-.3,3.9-.9s2.5-1.5,3.5-2.6,1.9-2.7,2.5-4.5,1-3.9,1-6.4-.3-3.7-.9-5.3-1.4-2.9-2.3-3.9-2.1-1.8-3.4-2.4c-1.3-.6-2.6-.8-4.1-.8s-3,.3-4.4.8c-1.4.5-2.6,1.3-3.6,2.4s-1.9,2.4-2.4,4c-.6,1.6-.9,3.6-.9,5.8s.3,4.4.9,6.2,1.4,3.2,2.3,4.3,2.1,2,3.5,2.5,2.8.8,4.3.8h0Z"/>
    <path class="st0" d="M381.5,67.7c0,1.9-.7,3.5-2.2,4.8s-3.3,1.9-5.5,1.9-4.2-.7-5.5-2c-1.3-1.4-2-3.1-2-5.2s.6-3.9,1.8-5.4c1.2-1.5,3.1-2.2,5.6-2.2s4.8.8,6,2.2c1.2,1.5,1.8,3.5,1.8,5.9h0ZM379.8,120.3c0,1.6-.4,2.7-1.1,3.3-.8.6-2.3.9-4.8.9s-4.1-.3-5-1c-.9-.7-1.3-1.8-1.3-3.5v-3.1c0-1.7,0-3.8,0-6.2s0-5.1,0-7.9c0-2.8,0-5.5,0-8.1s0-4.8,0-6.8v-4.2c0-1.6.4-2.7,1.1-3.4.7-.6,2.4-1,5-1s3.8.4,4.6,1.2c.8.8,1.2,2,1.2,3.6v10.7c0,2.4,0,5,0,7.7,0,2.7,0,5.2,0,7.6v10.2h0Z"/>
    <path class="st5" d="M405.3,88.4c-.9,0-1.4.1-1.6.4s-.3.8-.3,1.4v4.8c0,2,0,4.1,0,6.2,0,2.1,0,4,0,5.8v3.7c0,1.7.3,2.9.9,3.7.6.8,1.6,1.2,3,1.2s1.1,0,1.5-.2c.4-.1.7-.2,1-.3.3-.1.6-.2,1-.3.3-.1.7-.2,1.3-.2,1.1,0,2.1.4,2.8,1.1.7.8,1.1,1.9,1.1,3.5,0,3.9-3.8,5.9-11.4,5.9s-7.8-1.1-10-3.4c-2.1-2.2-3.2-5.3-3.2-9.2s0-7.9,0-11.6,0-7.3,0-10.7,0-1.1-.2-1.4-.5-.4-1-.4h-3.1c-.8,0-1.4-.3-1.8-.8s-.6-1.6-.6-3.1.2-2.1.6-2.8c.4-.7,1.1-1.1,2.2-1.3,1.4-.2,2.5-.5,3.1-.9s.9-.9.9-1.6c0-1.2,0-2.7,0-4.4,0-1.7,0-3.1,0-4.3,0-1.7.5-3,1.4-3.8,1-.8,2.5-1.2,4.7-1.2s3.7.4,4.6,1.1c.9.8,1.3,2,1.3,3.6v8.7c0,.6.1,1,.3,1.1.2.2.5.3,1,.3h7.8c1.1,0,1.9.3,2.4.9s.8,1.8.8,3.7-.3,3.1-.8,3.7c-.5.6-1.4.9-2.7.9h-7Z"/>
    <path class="st8" d="M422,70.4c0-.9,0-1.6.2-2.2.1-.6.5-1.2,1-1.7.5-.5,1.2-.8,2.2-1,1-.2,2.2-.3,3.9-.3,2.8,0,4.6.5,5.5,1.4.9.9,1.4,2,1.4,3.4s0,2.4,0,4.8,0,5,0,8,0,5.8,0,8.7,0,5.2,0,7c0,5.6,1.1,9.7,3.2,12.4,2.1,2.7,5.2,4,9.3,4s6.9-1.4,8.9-4.2c2-2.8,3-6.8,3-12.2v-3.6c0-1.6,0-3.4,0-5.4s0-4,0-6.2,0-4.1,0-6,0-3.5,0-4.8v-2.6c0-1.5.5-2.7,1.4-3.5,1-.9,2.8-1.3,5.6-1.3s3.8.5,4.7,1.4c.9.9,1.3,2.2,1.3,3.9v4.5c0,1.4,0,3.1,0,4.9,0,1.9,0,4.2,0,6.8v10.2c0,4.4-.5,8.4-1.3,11.9-.9,3.6-2.4,6.6-4.4,9.1-2,2.5-4.7,4.4-7.9,5.7-3.3,1.3-7.3,2-12.1,2s-8.2-.7-11.4-1.9c-3.2-1.3-5.9-3.2-7.9-5.6s-3.6-5.4-4.6-8.9c-1-3.5-1.5-7.4-1.5-11.7v-26.9h0Z"/>
    <path class="st4" d="M527.8,117.1c.8,1.2,1.2,2.4,1.2,3.6s-.5,1.7-1.3,2.3c-.9.6-2.6.9-5,.9s-2.7,0-3.7-.3c-1-.2-1.8-.5-2.5-1.1-.7-.6-1.3-1.3-2-2.3-.6-1-1.3-2.2-2-3.8-3-5.9-5.1-10.1-6.4-12.6-.5-.8-.8-1.4-1-1.8s-.4-.6-.8-.6-.6.2-.8.6c-.2.4-.5,1-1,1.9l-6.9,13.9c-.7,1.4-1.3,2.5-1.8,3.3-.5.8-1.1,1.4-1.8,1.8-.7.4-1.5.7-2.4.8-1,.1-2.2.2-3.7.2-2.2,0-3.8-.3-4.8-.9-.9-.6-1.4-1.4-1.4-2.2s0-1,.2-1.5c.1-.5.4-1.2.9-2s1.2-2,2.2-3.5c1-1.5,2.3-3.5,4-6,1.7-2.6,3.2-4.8,4.3-6.5s2-3.2,2.6-4.3,1-2,1.3-2.6c.2-.6.4-1,.4-1.3s0-.5-.1-.8-.3-.7-.6-1.2-.7-1.2-1.3-2.1c-.6-.9-1.4-2.1-2.5-3.7-2.2-3.3-4.2-6.2-6-8.5-1.8-2.3-3.1-4.2-3.9-5.6-.5-.8-.8-1.4-.9-1.8s-.2-1-.2-1.7.4-1.2,1.2-1.7,2.5-.8,5.1-.8,2.6,0,3.5.2c.9.2,1.7.4,2.4.9.7.4,1.3,1,1.9,1.7.6.7,1.2,1.7,1.9,2.8,1.5,2.4,2.7,4.4,3.5,6s1.6,3,2.4,4.2c.9,1.5,1.6,2.6,2,3.4.4.8.9,1.2,1.3,1.2s.9-.3,1.2-.9c.4-.6.9-1.6,1.7-3.1.8-1.3,1.6-2.9,2.6-4.9,1-2,2.3-4.6,4-7.9.3-.5.6-1,.9-1.5.3-.5.8-.9,1.3-1.2.6-.3,1.3-.6,2.2-.8s2.1-.3,3.5-.3c2.4,0,3.9.3,4.7.8s1.1,1.2,1.1,1.9,0,1.1-.3,1.6c-.2.5-.5,1.2-.9,2s-1,1.7-1.7,2.8c-.7,1.1-1.5,2.4-2.6,4-3.2,5-5.6,8.8-7.2,11.3-1.5,2.5-2.3,4-2.3,4.7s0,.6.1.8c0,.2.3.7.7,1.3.4.7,1,1.6,1.7,2.8.8,1.2,1.8,2.9,3.2,5l8.1,13h0Z"/>
  </g>
</svg>